<svg width="15" height="14" viewBox="0 0 15 14" fill="none" xmlns="http://www.w3.org/2000/svg">
<path d="M8.87379 10.9979L7.83204 12.7338C7.78206 12.8171 7.71137 12.886 7.62684 12.9339C7.54231 12.9817 7.44683 13.0069 7.34969 13.0069C7.25256 13.0069 7.15708 12.9817 7.07255 12.9339C6.98802 12.886 6.91733 12.8171 6.86735 12.7338L5.82673 10.9979C5.77669 10.9146 5.70594 10.8457 5.62136 10.7979C5.53678 10.7501 5.44126 10.725 5.3441 10.7251H1.16248C1.01329 10.7251 0.870217 10.6658 0.764728 10.5603C0.659239 10.4549 0.599976 10.3118 0.599976 10.1626V1.1626C0.599976 1.01341 0.659239 0.870339 0.764728 0.76485C0.870217 0.659361 1.01329 0.600098 1.16248 0.600098H13.5375C13.6867 0.600098 13.8297 0.659361 13.9352 0.76485C14.0407 0.870339 14.1 1.01341 14.1 1.1626V10.1626C14.1 10.3118 14.0407 10.4549 13.9352 10.5603C13.8297 10.6658 13.6867 10.7251 13.5375 10.7251H9.35585C9.25879 10.7251 9.16338 10.7502 9.07891 10.7981C8.99444 10.8459 8.92377 10.9147 8.87379 10.9979V10.9979Z" stroke="#B3B3B3" stroke-width="1.2" stroke-linecap="round" stroke-linejoin="round"/>
</svg>
